<svg id="Capa_1" enable-background="new 0 0 512 512" height="512" viewBox="0 0 512 512" width="512" xmlns="http://www.w3.org/2000/svg"><g><path d="m406 0h-75l-30 30h-45-45l-30-30h-75c-8.291 0-15 6.709-15 15 0 90.981 74.019 166 165 166s165-75.019 165-166c0-8.291-6.709-15-15-15z" fill="#fcc"/><path d="m421 15c0-8.291-6.709-15-15-15h-75l-30 30h-45v151c90.981 0 165-75.019 165-166z" fill="#ffb3b3"/><path d="m4.395 446.605c-5.859-5.859-5.859-15.352 0-21.211l10.605-10.605c-.19-.776-1.084-7.324-1.611-11.25-1.479-10.986-3.516-26.045 6.914-36.475 10.459-10.444 25.532-8.408 36.489-6.914 3.896.527 11.43 1.406 13.466.776l19.995-20.391c5.859-5.859 15.352-5.859 21.211 0s5.859 15.352 0 21.211l-21.226 21.226c-10.415 10.4-26.488 8.364-37.46 6.914-3.926-.542-10.474-1.406-12.48-.776h.015c1.406 0 2.285 6.519 2.812 10.415 1.48 10.986 3.516 26.045-6.913 36.475l-10.605 10.605c-5.861 5.86-15.353 5.86-21.212 0z" fill="#d5e8fe"/><path d="m486.395 446.605-10.606-10.605c-10.43-10.43-8.394-25.488-6.915-36.475.528-3.926 1.422-10.474.777-12.466.059 1.406-6.504 2.285-10.43 2.827-10.972 1.45-27.045 3.486-37.46-6.914l-21.226-21.226c-5.859-5.859-5.859-15.352 0-21.211s15.352-5.859 21.211 0l21.226 21.226c.762-.205 7.324-1.084 11.235-1.611 10.986-1.523 27.06-3.545 37.489 6.914 10.43 10.43 8.394 25.488 6.914 36.475-.527 3.926-1.421 10.474-.776 12.466l9.771 9.39c5.859 5.859 5.859 15.352 0 21.211s-15.351 5.859-21.21-.001z" fill="#b5dbff"/><path d="m90.238 361.747c-15.959-15.959-15.586-48.032 10.62-74.238 20.829-20.858 54.329-30.546 74.238-10.605 20.006 20.006 10.165 53.497-10.605 74.238-20.875 20.875-54.306 30.51-74.253 10.605z" fill="#edf5ff"/><path d="m347.509 351.142c-20.875-20.846-30.518-54.326-10.605-74.238 20.012-19.98 53.466-10.196 74.238 10.605 21.418 21.418 30.139 54.72 10.605 74.253-19.653 19.653-53.139 10.479-74.238-10.62z" fill="#d5e8fe"/><g fill="#ff6c6c"><path d="m46 241h-31c-8.291 0-15-6.709-15-15s6.709-15 15-15h31c8.291 0 15 6.709 15 15s-6.709 15-15 15z"/><path d="m136 241h-30c-8.291 0-15-6.709-15-15s6.709-15 15-15h30c8.291 0 15 6.709 15 15s-6.709 15-15 15z"/><path d="m226 241h-30c-8.291 0-15-6.709-15-15s6.709-15 15-15h30c8.291 0 15 6.709 15 15s-6.709 15-15 15z"/></g><path d="m316 241h-30c-8.291 0-15-6.709-15-15s6.709-15 15-15h30c8.291 0 15 6.709 15 15s-6.709 15-15 15z" fill="#e63950"/><path d="m406 241h-30c-8.291 0-15-6.709-15-15s6.709-15 15-15h30c8.291 0 15 6.709 15 15s-6.709 15-15 15z" fill="#e63950"/><path d="m497 241h-31c-8.291 0-15-6.709-15-15s6.709-15 15-15h31c8.291 0 15 6.709 15 15s-6.709 15-15 15z" fill="#e63950"/><path d="m256 0h-75v15c0 41.42 33.578 75 75 75s75-33.58 75-75v-15z" fill="#f9f"/><path d="m331 15v-15h-75v90c41.422 0 75-33.58 75-75z" fill="#e666ff"/><g><path d="m271 406v-30c0-8.291-6.709-15-15-15s-15 6.709-15 15v28.55c-.952 1.86-5.947 5.874-9.082 8.262-8.833 6.723-20.918 15.937-20.918 30.688s12.085 23.965 20.918 30.688c3.135 2.388 8.408 6.401 9.082 6.812v16c0 8.291 6.709 15 15 15s15-6.709 15-15v-16c0-11.631-7.491-19.746-15-25.986l-15.278-10.063 15.278-12.965c7.509-6.24 15-14.355 15-25.986z" fill="#b5dbff"/><ellipse cx="256" cy="331" fill="#edf5ff" rx="45" ry="60"/><path d="m301 331c0-33.647-19.761-60-45-60v120c25.239 0 45-26.353 45-60z" fill="#d5e8fe"/></g></g></svg>