<svg id="Capa_1" enable-background="new 0 0 512 512" height="512" viewBox="0 0 512 512" width="512" xmlns="http://www.w3.org/2000/svg"><g><g><path d="m416.271 269.248c13.661 0 21.017-16.038 12.103-26.391l-83.357-96.817c-7.828-9.092-19.23-14.321-31.228-14.321h-20.846c-3.983 0-7.211-3.229-7.211-7.211v-39.147h-40.177v39.147c0 3.983-3.229 7.211-7.211 7.211h-20.846c-11.998 0-23.4 5.229-31.228 14.321l-83.357 96.817c-8.913 10.353-1.558 26.391 12.103 26.391 4.236 0 8.298-1.683 11.293-4.678l73.663-73.663c1.947-1.947 5.276-.568 5.276 2.185v284.785c0 4.634-3.113 8.69-7.59 9.889l-15.352 4.109c-4.477 1.198-7.59 5.254-7.59 9.889 0 5.654 4.583 10.237 10.237 10.237h41.182c5.267 0 9.675-3.997 10.188-9.239l17.288-176.546c.606-6.191 5.812-10.912 12.032-10.912 6.221 0 11.426 4.721 12.032 10.912l17.288 176.546c.513 5.242 4.921 9.239 10.188 9.239h41.182c5.654 0 10.237-4.583 10.237-10.237 0-4.634-3.113-8.69-7.59-9.889l-15.352-4.109c-4.477-1.198-7.59-5.254-7.59-9.889v-284.784c0-2.753 3.329-4.132 5.276-2.185l73.663 73.663c2.996 2.994 7.058 4.677 11.294 4.677z" fill="#ffdecf"/><g fill="#ffcdbe"><path d="m348.981 491.875-15.352-4.109c-4.477-1.198-7.59-5.254-7.59-9.888v-281.468c-11.405-11.405-30.905-3.328-30.905 12.801v268.227c0 14.007 9.41 26.268 22.942 29.889 2.653.71 4.821 2.429 6.152 4.672h22.107c5.653 0 10.236-4.583 10.236-10.236 0-4.634-3.113-8.69-7.59-9.888z"/><path d="m428.374 242.857-83.357-96.817c-7.828-9.092-19.23-14.321-31.228-14.321h-20.846c-3.983 0-7.211-3.229-7.211-7.211v-39.147h-17.885v52.842c0 3.983 3.229 7.211 7.211 7.211h20.846c11.998 0 23.4 5.229 31.228 14.321l75.625 87.836 15.241 15.241c1.904 1.904 4.24 3.271 6.776 4.02 7.723-4.867 10.404-16.073 3.6-23.975z"/></g><g><g><path d="m281.19 152.237c-2.67 0-5.268-1.386-6.698-3.865-2.134-3.696-.867-8.421 2.828-10.554l92.109-53.179c3.693-2.134 8.422-.868 10.554 2.828 2.134 3.696.867 8.421-2.828 10.554l-92.109 53.179c-1.216.703-2.545 1.037-3.856 1.037z" fill="#ddebfd"/></g><circle cx="385.851" cy="84.08" fill="#dc8995" r="19.573"/><path d="m390.917 65.173c-5.229-1.401-10.53-.546-14.872 1.968 7.493 4.318 11.479 13.254 9.135 22.004-1.397 5.213-4.772 9.366-9.1 11.872 1.448.835 3.014 1.515 4.706 1.968 10.442 2.798 21.175-3.399 23.973-13.84 2.796-10.441-3.4-21.174-13.842-23.972z" fill="#d5717f"/></g><g><g><path d="m410.226 336.332h-106.357c-4.268 0-7.726-3.459-7.726-7.726s3.459-7.726 7.726-7.726h106.357c4.268 0 7.726 3.459 7.726 7.726.001 4.267-3.458 7.726-7.726 7.726z" fill="#ddebfd"/></g><circle cx="424.728" cy="328.606" fill="#dc8995" r="19.573"/><path d="m438.569 314.765c-6.538-6.539-16.544-7.465-24.087-2.817 1.275.786 2.488 1.712 3.594 2.817 7.644 7.644 7.644 20.037 0 27.681-1.105 1.105-2.318 2.032-3.594 2.817 7.544 4.648 17.549 3.721 24.087-2.817 7.644-7.644 7.644-20.037 0-27.681z" fill="#d5717f"/></g><g><g><path d="m99.843 337.955c-2.67 0-5.267-1.386-6.698-3.865-2.134-3.696-.867-8.421 2.828-10.554l132.256-76.358c3.694-2.134 8.42-.868 10.554 2.828s.867 8.421-2.828 10.554l-132.256 76.358c-1.216.703-2.545 1.037-3.856 1.037z" fill="#ddebfd"/></g><circle cx="87.276" cy="337.478" fill="#dc8995" r="19.573"/><path d="m92.342 318.571c-5.229-1.401-10.53-.546-14.872 1.968 7.493 4.318 11.479 13.254 9.135 22.004-1.397 5.213-4.772 9.367-9.1 11.872 1.448.835 3.014 1.515 4.706 1.968 10.442 2.798 21.175-3.399 23.973-13.84 2.797-10.441-3.4-21.174-13.842-23.972z" fill="#d5717f"/></g></g><path d="m282.191 101.058-33.153 1.819c-1.179 0-2.34.065-3.482-.083-13.079-1.703-23.179-12.886-23.179-26.429v-33.097c0-23.896 19.371-43.268 43.267-43.268 23.896 0 43.268 19.372 43.268 43.268v33.097c0 13.553-10.115 24.743-23.208 26.433-1.128.145-2.346-1.74-3.513-1.74z" fill="#ffdecf"/><path d="m265.644 0c-5.446 0-10.652 1.016-15.453 2.852 16.262 6.222 27.815 21.965 27.815 40.415v33.097c-.441 2.556-2.339 11.712-10.705 18.847-8.973 7.653-19.136 7.661-21.666 7.584 1.113.142 2.244.223 3.395.223h33.228c14.72 0 26.654-11.933 26.654-26.654v-33.096c0-23.896-19.372-43.268-43.268-43.268z" fill="#ffcdbe"/><g><g><path d="m243.417 42.73h-106.358c-4.268 0-7.726-3.459-7.726-7.726s3.459-7.726 7.726-7.726h106.357c4.268 0 7.726 3.459 7.726 7.726s-3.458 7.726-7.725 7.726z" fill="#ddebfd"/></g><circle cx="122.557" cy="35.004" fill="#dc8995" r="19.573"/><path d="m136.397 21.163c-6.407-6.407-16.14-7.422-23.627-3.089 1.446.837 2.817 1.852 4.054 3.089 7.644 7.644 7.644 20.037 0 27.681-1.237 1.237-2.608 2.252-4.054 3.089 7.487 4.333 17.221 3.318 23.627-3.089 7.644-7.643 7.644-20.037 0-27.681z" fill="#d5717f"/></g></g></svg>