<svg id="Layer_1" enable-background="new 0 0 256 256" height="512" viewBox="0 0 256 256" width="512" xmlns="http://www.w3.org/2000/svg"><g><g><g><path d="m114.34 115.172c0-29.587-27.704-55.962-58.11-53.502-26.554 2.148-47.71 23.893-49.17 50.494-1.52 27.711 18.113 51.214 44.188 55.847v23.937h-12.814c-5.013 0-9.389 3.783-9.713 8.785-.355 5.481 3.986 10.037 9.391 10.037h13.137v22.462c0 5.013 3.783 9.389 8.785 9.713 5.481.355 10.037-3.986 10.037-9.391v-22.784h12.813c5.013 0 9.389-3.783 9.713-8.785.355-5.481-3.986-10.037-9.391-10.037h-13.135v-23.938c25.125-4.464 44.269-26.45 44.269-52.838zm-53.681 34.859c-19.221 0-34.859-15.638-34.859-34.859 0-19.222 15.638-34.859 34.859-34.859s34.859 15.638 34.859 34.859-15.638 34.859-34.859 34.859z" fill="#ff4a73"/></g><g><path d="m240.381 13.281-16.381 4.389-16.381 4.389c-5.098 1.366-6.805 7.738-3.073 11.47l5.339 5.339-31.368 31.368c-9.577-6.27-21.26-9.578-33.746-8.568-26.554 2.148-47.71 23.893-49.17 50.494-.035.639-.059 1.275-.072 1.91-.598 29.753 23.995 53.937 53.755 53.937h.166c21.422 0 41.15-12.554 49.361-32.34 2.622-6.318 4.07-13.242 4.07-20.499 0-12-3.959-23.092-10.638-32.041l30.952-30.952 5.335 5.335c3.732 3.732 10.104 2.024 11.47-3.073l4.389-16.381 4.389-16.381c1.366-5.097-3.299-9.762-8.397-8.396zm-91.182 136.75c-19.221 0-34.859-15.638-34.859-34.859 0-19.222 15.638-34.859 34.859-34.859s34.859 15.638 34.859 34.859-15.638 34.859-34.859 34.859z" fill="#5fcdff"/></g><g><path d="m66.249 233.233v-22.46h-13.14c-5.4 0-9.74-4.56-9.39-10.04.33-5 4.7-8.79 9.72-8.79h12.81v-23.93c-26.08-4.63-45.71-28.14-44.19-55.85 1.39-25.4 20.75-46.36 45.6-50.08-3.73-.57-7.56-.72-11.43-.41-26.55 2.15-47.71 23.89-49.17 50.49-1.52 27.71 18.11 51.22 44.19 55.85v23.93h-12.81c-5.02 0-9.39 3.79-9.72 8.79-.35 5.48 3.99 10.04 9.39 10.04h13.14v22.46c0 5.01 3.78 9.39 8.78 9.71 3.35.22 6.35-1.31 8.19-3.77-1.24-1.66-1.97-3.73-1.97-5.94z" fill="#f973a3"/></g><g><path d="m110.529 114.073c.01-.63.04-1.27.07-1.91 1.4-25.56 20.99-46.63 46.08-50.14-3.85-.55-7.84-.68-11.91-.35-26.55 2.15-47.71 23.89-49.17 50.49-.03.64-.06 1.28-.07 1.91-.6 29.75 24 53.94 53.75 53.94h.17c2.49 0 4.97-.17 7.4-.51-26.3-3.62-46.87-26.2-46.32-53.43z" fill="#73d7f9"/></g></g><g fill="#5f266d"><path d="m73.326 102.338h-25.333c-2.209 0-4 1.791-4 4s1.791 4 4 4h25.333c2.209 0 4-1.791 4-4s-1.791-4-4-4z"/><path d="m73.326 120.005h-25.333c-2.209 0-4 1.791-4 4s1.791 4 4 4h25.333c2.209 0 4-1.791 4-4s-1.791-4-4-4z"/><path d="m149.199 76.312c-21.427 0-38.858 17.432-38.858 38.859s17.432 38.859 38.858 38.859 38.859-17.432 38.859-38.859-17.433-38.859-38.859-38.859zm0 69.719c-17.016 0-30.858-13.843-30.858-30.859s13.843-30.859 30.858-30.859 30.859 13.843 30.859 30.859-13.844 30.859-30.859 30.859z"/><path d="m239.346 9.417-32.763 8.778c-3.791 1.016-6.66 3.886-7.676 7.676s.034 7.711 2.81 10.486l2.511 2.511-26.307 26.306c-10.144-5.864-21.649-8.448-33.474-7.492-16.088 1.302-30.322 9.276-39.966 21.109-12.3-14.572-30.466-22.575-48.576-21.106-28.553 2.313-51.27 25.638-52.841 54.259-1.535 27.99 17.265 52.91 44.184 59.322v16.677h-8.81c-7.226 0-13.248 5.502-13.711 12.535-.509 7.962 5.852 14.295 13.381 14.295h9.14v18.46c0 7.234 5.501 13.252 12.519 13.701 7.957.521 14.301-5.821 14.301-13.381v-18.78h8.82c11.979 0 18.163-13.995 10.096-22.593-5.756-6.136-13.027-3.682-18.917-4.237v-16.683c12.149-2.922 23.149-9.824 31.124-19.483.816.947 1.653 1.88 2.537 2.782 10.871 11.091 26.017 17.452 41.555 17.451h.166c23.456 0 44.281-13.662 53.056-34.807 2.903-6.998 4.375-14.41 4.375-22.032 0-11.341-3.251-22.189-9.436-31.586l25.75-25.75 2.506 2.506c5.908 5.907 15.997 3.213 18.162-4.867l8.778-32.762c2.165-8.068-5.212-15.457-13.294-13.295zm-169.979 154.657c-1.908.34-3.298 2-3.298 3.938v23.93c0 2.209 1.791 4 4 4 11.883.45 14.426-1.12 17.082 1.71 3.336 3.556.636 9.12-4.262 9.12h-12.82c-2.209 0-4 1.791-4 4v22.78c0 3.108-2.593 5.604-5.784 5.398-2.777-.178-5.036-2.743-5.036-5.718v-22.46c0-2.209-1.791-4-4-4-11.848-.448-14.427 1.121-17.082-1.71-3.28-3.495-.755-9.12 4.271-9.12h12.81c2.209 0 4-1.791 4-4v-23.93c0-1.939-1.391-3.6-3.301-3.938-24.69-4.383-42.271-26.606-40.895-51.692 1.353-24.646 20.913-44.731 45.499-46.723 16.216-1.31 32.515 6.287 43.157 19.947-2.034 3.389-3.737 6.995-5.047 10.782-6.633-11.96-19.386-20.076-34.003-20.076-21.427 0-38.859 17.432-38.859 38.859s17.432 38.859 38.859 38.859c14.668 0 27.46-8.171 34.073-20.198 1.4 3.945 3.247 7.73 5.517 11.298-7.533 9.914-18.648 16.765-30.881 18.944zm22.151-48.902c0 17.016-13.843 30.859-30.859 30.859s-30.859-13.843-30.859-30.859 13.843-30.859 30.859-30.859 30.859 13.843 30.859 30.859zm153.397-94.53-8.778 32.762c-.571 2.129-3.226 2.832-4.779 1.281l-5.334-5.334c-.75-.75-1.768-1.172-2.828-1.172s-2.078.421-2.828 1.171l-30.952 30.952c-1.405 1.405-1.566 3.628-.378 5.221 6.44 8.628 9.844 18.88 9.844 29.648 0 6.564-1.267 12.946-3.764 18.966-7.531 18.147-25.456 29.873-45.667 29.873h-.166c-13.6 0-26.328-5.345-35.841-15.051-9.234-9.422-14.176-21.783-13.915-34.806.012-.587.034-1.177.067-1.77.499-9.093 3.481-17.561 8.273-24.732.045-.066.089-.131.13-.2 8.212-12.163 21.661-20.546 37.095-21.795 1.385-.112 2.764-.167 4.135-.167 9.663 0 18.957 2.765 27.098 8.095 1.585 1.037 3.681.821 5.02-.518l31.369-31.368c.75-.75 1.172-1.768 1.172-2.829s-.422-2.079-1.172-2.829l-5.34-5.339c-1.052-1.053-.867-2.28-.738-2.759.128-.479.582-1.634 2.019-2.019l32.763-8.778c2.118-.571 4.064 1.37 3.495 3.497z"/><path d="m161.866 102.338h-25.333c-2.209 0-4 1.791-4 4s1.791 4 4 4h25.333c2.209 0 4-1.791 4-4s-1.791-4-4-4z"/><path d="m161.866 120.005h-25.333c-2.209 0-4 1.791-4 4s1.791 4 4 4h25.333c2.209 0 4-1.791 4-4s-1.791-4-4-4z"/></g></g></svg>